<mxfile host="Electron" modified="2024-04-30T17:19:46.739Z" agent="Mozilla/5.0 (Windows NT 10.0; Win64; x64) AppleWebKit/537.36 (KHTML, like Gecko) draw.io/24.2.5 Chrome/120.0.6099.109 Electron/28.1.0 Safari/537.36" version="24.2.5" etag="4wVMz4fRnKruCNzQhVlz" type="device">
  <diagram id="sG3ggiirnAXW0NVf8yej" name="Страница — 1">
    <mxGraphModel dx="1098" dy="1959" grid="1" gridSize="10" guides="1" tooltips="1" connect="1" arrows="1" fold="1" page="1" pageScale="1" pageWidth="827" pageHeight="1169" math="0" shadow="0">
      <root>
        <mxCell id="0" />
        <mxCell id="1" parent="0" />
        <mxCell id="2J7fph16W5YYwuJImeUj-17" style="edgeStyle=orthogonalEdgeStyle;rounded=0;orthogonalLoop=1;jettySize=auto;html=1;exitX=0.5;exitY=1;exitDx=0;exitDy=0;entryX=0.5;entryY=0;entryDx=0;entryDy=0;" edge="1" parent="1" source="2J7fph16W5YYwuJImeUj-1" target="2J7fph16W5YYwuJImeUj-2">
          <mxGeometry relative="1" as="geometry" />
        </mxCell>
        <mxCell id="2J7fph16W5YYwuJImeUj-1" value="start" style="ellipse;whiteSpace=wrap;html=1;" vertex="1" parent="1">
          <mxGeometry x="320" y="-1160" width="120" height="30" as="geometry" />
        </mxCell>
        <mxCell id="2J7fph16W5YYwuJImeUj-18" value="" style="edgeStyle=orthogonalEdgeStyle;rounded=0;orthogonalLoop=1;jettySize=auto;html=1;" edge="1" parent="1" source="2J7fph16W5YYwuJImeUj-2" target="2J7fph16W5YYwuJImeUj-8">
          <mxGeometry relative="1" as="geometry" />
        </mxCell>
        <mxCell id="2J7fph16W5YYwuJImeUj-2" value="numbers=[1,8,3,8,2,6,8,8]&lt;div&gt;index=0&lt;/div&gt;&lt;div&gt;maximum=&lt;span style=&quot;background-color: initial;&quot;&gt;numbers[index]&lt;/span&gt;&lt;/div&gt;&lt;div&gt;&lt;span style=&quot;background-color: initial;&quot;&gt;count_maximal=0&lt;/span&gt;&lt;/div&gt;" style="rounded=0;whiteSpace=wrap;html=1;" vertex="1" parent="1">
          <mxGeometry x="280" y="-1090" width="200" height="70" as="geometry" />
        </mxCell>
        <mxCell id="2J7fph16W5YYwuJImeUj-20" style="edgeStyle=orthogonalEdgeStyle;rounded=0;orthogonalLoop=1;jettySize=auto;html=1;exitX=0.5;exitY=1;exitDx=0;exitDy=0;entryX=0.5;entryY=0;entryDx=0;entryDy=0;" edge="1" parent="1" source="2J7fph16W5YYwuJImeUj-8" target="2J7fph16W5YYwuJImeUj-9">
          <mxGeometry relative="1" as="geometry" />
        </mxCell>
        <mxCell id="2J7fph16W5YYwuJImeUj-34" style="edgeStyle=orthogonalEdgeStyle;rounded=0;orthogonalLoop=1;jettySize=auto;html=1;exitX=1;exitY=0.5;exitDx=0;exitDy=0;entryX=0;entryY=0.5;entryDx=0;entryDy=0;" edge="1" parent="1" source="2J7fph16W5YYwuJImeUj-8" target="2J7fph16W5YYwuJImeUj-33">
          <mxGeometry relative="1" as="geometry" />
        </mxCell>
        <mxCell id="2J7fph16W5YYwuJImeUj-8" value="index&amp;lt;numbers.length" style="rhombus;whiteSpace=wrap;html=1;" vertex="1" parent="1">
          <mxGeometry x="290" y="-1000" width="180" height="94" as="geometry" />
        </mxCell>
        <mxCell id="2J7fph16W5YYwuJImeUj-38" style="edgeStyle=orthogonalEdgeStyle;rounded=0;orthogonalLoop=1;jettySize=auto;html=1;exitX=0.5;exitY=1;exitDx=0;exitDy=0;entryX=0.5;entryY=0;entryDx=0;entryDy=0;" edge="1" parent="1" source="2J7fph16W5YYwuJImeUj-9" target="2J7fph16W5YYwuJImeUj-14">
          <mxGeometry relative="1" as="geometry" />
        </mxCell>
        <mxCell id="2J7fph16W5YYwuJImeUj-41" style="edgeStyle=orthogonalEdgeStyle;rounded=0;orthogonalLoop=1;jettySize=auto;html=1;exitX=1;exitY=0.5;exitDx=0;exitDy=0;entryX=0;entryY=0.5;entryDx=0;entryDy=0;" edge="1" parent="1" source="2J7fph16W5YYwuJImeUj-9" target="2J7fph16W5YYwuJImeUj-11">
          <mxGeometry relative="1" as="geometry" />
        </mxCell>
        <mxCell id="2J7fph16W5YYwuJImeUj-9" value="numbers[index] &amp;gt; maximum" style="rhombus;whiteSpace=wrap;html=1;" vertex="1" parent="1">
          <mxGeometry x="270" y="-890" width="220" height="100" as="geometry" />
        </mxCell>
        <mxCell id="2J7fph16W5YYwuJImeUj-46" style="edgeStyle=orthogonalEdgeStyle;rounded=0;orthogonalLoop=1;jettySize=auto;html=1;exitX=1;exitY=0.5;exitDx=0;exitDy=0;entryX=0.5;entryY=1;entryDx=0;entryDy=0;" edge="1" parent="1" source="2J7fph16W5YYwuJImeUj-11" target="2J7fph16W5YYwuJImeUj-16">
          <mxGeometry relative="1" as="geometry" />
        </mxCell>
        <mxCell id="2J7fph16W5YYwuJImeUj-11" value="maximum = numbers[index]&lt;br&gt;&lt;div&gt;&lt;span style=&quot;background-color: initial;&quot;&gt;count_maximal=1&lt;/span&gt;&amp;nbsp;&lt;/div&gt;" style="rounded=0;whiteSpace=wrap;html=1;" vertex="1" parent="1">
          <mxGeometry x="610" y="-870" width="120" height="60" as="geometry" />
        </mxCell>
        <mxCell id="2J7fph16W5YYwuJImeUj-42" style="edgeStyle=orthogonalEdgeStyle;rounded=0;orthogonalLoop=1;jettySize=auto;html=1;exitX=0.5;exitY=1;exitDx=0;exitDy=0;entryX=0.5;entryY=0;entryDx=0;entryDy=0;" edge="1" parent="1" source="2J7fph16W5YYwuJImeUj-14" target="2J7fph16W5YYwuJImeUj-16">
          <mxGeometry relative="1" as="geometry" />
        </mxCell>
        <mxCell id="2J7fph16W5YYwuJImeUj-44" style="edgeStyle=orthogonalEdgeStyle;rounded=0;orthogonalLoop=1;jettySize=auto;html=1;exitX=1;exitY=0.5;exitDx=0;exitDy=0;entryX=0;entryY=0.5;entryDx=0;entryDy=0;" edge="1" parent="1" source="2J7fph16W5YYwuJImeUj-14" target="2J7fph16W5YYwuJImeUj-15">
          <mxGeometry relative="1" as="geometry" />
        </mxCell>
        <mxCell id="2J7fph16W5YYwuJImeUj-14" value="numbers[index] == maximum" style="rhombus;whiteSpace=wrap;html=1;" vertex="1" parent="1">
          <mxGeometry x="290" y="-740" width="180" height="90" as="geometry" />
        </mxCell>
        <mxCell id="2J7fph16W5YYwuJImeUj-30" style="edgeStyle=orthogonalEdgeStyle;rounded=0;orthogonalLoop=1;jettySize=auto;html=1;exitX=0.5;exitY=1;exitDx=0;exitDy=0;entryX=1;entryY=0.5;entryDx=0;entryDy=0;" edge="1" parent="1" source="2J7fph16W5YYwuJImeUj-15" target="2J7fph16W5YYwuJImeUj-16">
          <mxGeometry relative="1" as="geometry" />
        </mxCell>
        <mxCell id="2J7fph16W5YYwuJImeUj-15" value="count_maximal=count_maximal+1" style="rounded=0;whiteSpace=wrap;html=1;" vertex="1" parent="1">
          <mxGeometry x="500" y="-710" width="220" height="30" as="geometry" />
        </mxCell>
        <mxCell id="2J7fph16W5YYwuJImeUj-31" style="edgeStyle=orthogonalEdgeStyle;rounded=0;orthogonalLoop=1;jettySize=auto;html=1;exitX=0;exitY=0.5;exitDx=0;exitDy=0;entryX=0;entryY=0.5;entryDx=0;entryDy=0;" edge="1" parent="1" source="2J7fph16W5YYwuJImeUj-16" target="2J7fph16W5YYwuJImeUj-8">
          <mxGeometry relative="1" as="geometry">
            <Array as="points">
              <mxPoint x="240" y="-500" />
              <mxPoint x="240" y="-953" />
            </Array>
          </mxGeometry>
        </mxCell>
        <mxCell id="2J7fph16W5YYwuJImeUj-16" value="index=index+1" style="rounded=0;whiteSpace=wrap;html=1;" vertex="1" parent="1">
          <mxGeometry x="320" y="-510" width="120" height="20" as="geometry" />
        </mxCell>
        <mxCell id="2J7fph16W5YYwuJImeUj-21" value="Yes" style="text;html=1;align=center;verticalAlign=middle;resizable=0;points=[];autosize=1;strokeColor=none;fillColor=none;" vertex="1" parent="1">
          <mxGeometry x="390" y="-920" width="40" height="30" as="geometry" />
        </mxCell>
        <mxCell id="2J7fph16W5YYwuJImeUj-27" value="No" style="text;html=1;align=center;verticalAlign=middle;resizable=0;points=[];autosize=1;strokeColor=none;fillColor=none;" vertex="1" parent="1">
          <mxGeometry x="380" y="-640" width="40" height="30" as="geometry" />
        </mxCell>
        <mxCell id="2J7fph16W5YYwuJImeUj-33" value="print (count_maximal)" style="shape=document;whiteSpace=wrap;html=1;boundedLbl=1;" vertex="1" parent="1">
          <mxGeometry x="520" y="-993" width="160" height="80" as="geometry" />
        </mxCell>
        <mxCell id="2J7fph16W5YYwuJImeUj-35" value="No" style="text;html=1;align=center;verticalAlign=middle;resizable=0;points=[];autosize=1;strokeColor=none;fillColor=none;" vertex="1" parent="1">
          <mxGeometry x="470" y="-980" width="40" height="30" as="geometry" />
        </mxCell>
        <mxCell id="2J7fph16W5YYwuJImeUj-37" value="No" style="text;whiteSpace=wrap;html=1;" vertex="1" parent="1">
          <mxGeometry x="400" y="-780" width="50" height="40" as="geometry" />
        </mxCell>
        <mxCell id="2J7fph16W5YYwuJImeUj-39" value="Yes" style="text;html=1;align=center;verticalAlign=middle;resizable=0;points=[];autosize=1;strokeColor=none;fillColor=none;" vertex="1" parent="1">
          <mxGeometry x="500" y="-870" width="40" height="30" as="geometry" />
        </mxCell>
        <mxCell id="2J7fph16W5YYwuJImeUj-45" value="Yes" style="text;html=1;align=center;verticalAlign=middle;resizable=0;points=[];autosize=1;strokeColor=none;fillColor=none;" vertex="1" parent="1">
          <mxGeometry x="460" y="-720" width="40" height="30" as="geometry" />
        </mxCell>
      </root>
    </mxGraphModel>
  </diagram>
</mxfile>
